<svg xmlns="http://www.w3.org/2000/svg" width="90" height="90" viewBox="0 0 90 90" fill="none"><path d="M84.7855 28.1821C85.9064 31.9437 86.5173 35.9276 86.5173 40.0538C86.5173 62.9817 67.9306 81.5684 45.0027 81.5684C22.0747 81.5684 3.48804 62.9817 3.48804 40.0538C3.48804 35.9276 4.09889 31.9437 5.21979 28.1821C3.15295 33.2158 2.00537 38.7239 2.00537 44.5018C2.00537 68.2482 21.2563 87.4991 45.0027 87.4991C68.749 87.4991 87.9999 68.2482 87.9999 44.5018C87.9999 38.7239 86.8523 33.2158 84.7855 28.1821Z" fill="#F8F8F8"></path><path d="M70.6896 29.6753C67.8251 24.7247 67.7495 16.5463 62.8003 13.6818C58.0009 10.9062 50.945 14.8486 45.0024 14.8486C39.0599 14.8486 32.0039 10.9062 27.206 13.6818C22.2554 16.5463 22.1797 24.7247 19.3152 29.6753C16.5397 34.4732 9.41846 38.5594 9.41846 44.5019C9.41846 50.4445 16.5397 54.5307 19.3152 59.3286C22.1797 64.2792 22.2554 72.4576 27.2045 75.3221C32.0039 78.0976 39.0599 74.1552 45.0024 74.1552C50.945 74.1552 58.0009 78.0976 62.7988 75.3221C67.7495 72.4576 67.8251 64.2792 70.6896 59.3286C73.4652 54.5307 80.5864 50.4445 80.5864 44.5019C80.5864 38.5594 73.4652 34.4732 70.6896 29.6753ZM45.0024 59.3286C36.8137 59.3286 30.1758 52.6907 30.1758 44.5019C30.1758 36.3132 36.8137 29.6753 45.0024 29.6753C53.1912 29.6753 59.8291 36.3132 59.8291 44.5019C59.8291 52.6907 53.1912 59.3286 45.0024 59.3286Z" fill="#BE8A60"></path><path d="M45.0029 35.6057C52.1761 35.6057 58.1571 40.7001 59.5316 47.467C59.7258 46.5092 59.8296 45.5173 59.8296 44.5017C59.8296 36.3129 53.1917 29.675 45.0029 29.675C36.8142 29.675 30.1763 36.3129 30.1763 44.5017C30.1763 45.5173 30.28 46.5092 30.4743 47.467C31.8472 40.7001 37.8298 35.6057 45.0029 35.6057Z" fill="#F8F8F8"></path><path d="M45.0536 89.004C40.5345 89.0054 35.993 88.3071 31.5613 86.903C20.2353 83.3135 10.985 75.5265 5.51689 64.9803C0.0458509 54.4326 -0.989054 42.3875 2.60196 31.0614C6.19149 19.7353 13.9784 10.4849 24.5246 5.01686C35.0693 -0.454179 47.119 -1.48904 58.4436 2.10198C59.2249 2.34958 59.6564 3.1828 59.4088 3.96268C59.1627 4.74405 58.3353 5.18144 57.548 4.9279C46.9707 1.57559 35.7306 2.54232 25.8887 7.64862C16.0438 12.7534 8.77726 21.387 5.42644 31.9569C2.07561 42.5283 3.0423 53.7714 8.14711 63.6163C13.2519 73.4612 21.8855 80.7277 32.4554 84.0785C43.0312 87.4278 54.2714 86.4626 64.1148 81.3578C73.9597 76.253 81.2262 67.6195 84.577 57.0495C90.3535 38.8261 83.0262 19.1215 66.7569 9.13423C66.0585 8.70574 65.8406 7.79241 66.2691 7.09407C66.699 6.39425 67.6109 6.18078 68.3092 6.60631C85.7409 17.3097 93.5931 38.4213 87.403 57.945C83.8134 69.2711 76.0265 78.5215 65.4803 83.9896C59.0604 87.3181 52.0829 89.004 45.0536 89.004Z" fill="#252627"></path><path d="M44.9928 60.8123C43.3634 60.8123 41.7087 60.5662 40.0763 60.0472C35.9219 58.7306 32.531 55.875 30.5264 52.0097C28.5204 48.1429 28.1424 43.7261 29.4575 39.5731C32.1752 31.0004 41.3588 26.2351 49.9316 28.9543C50.7129 29.2019 51.1444 30.0352 50.8968 30.8151C50.6507 31.5964 49.8233 32.0308 49.036 31.7803C45.6378 30.7009 42.023 31.0122 38.8605 32.655C35.6965 34.2949 33.3613 37.0719 32.2849 40.4687C31.207 43.8669 31.5183 47.4802 33.1597 50.6442C34.801 53.8082 37.5765 56.1434 40.9733 57.2213C44.3686 58.2977 47.9848 57.9879 51.1488 56.3466C54.3128 54.7067 56.648 51.9297 57.7244 48.5329C58.8246 45.059 58.4806 41.3805 56.7519 38.1706C56.3634 37.4515 56.6347 36.55 57.3553 36.163C58.0744 35.776 58.9758 36.0459 59.3643 36.7664C61.4756 40.6881 61.8982 45.185 60.5519 49.4299C58.3501 56.3688 51.9124 60.8123 44.9928 60.8123Z" fill="#252627"></path></svg>