<svg xmlns="http://www.w3.org/2000/svg" width="80" height="89" viewBox="0 0 80 89" fill="none"><path d="M53.333 35.5559V53.3336C53.333 65.981 43.9997 76.421 31.8516 78.2165C33.0634 78.3958 34.293 78.5188 35.5553 78.5188C49.4649 78.5188 60.7404 67.2432 60.7404 53.3336V38.5189C60.7404 36.8818 59.4145 35.5559 57.7774 35.5559H53.333Z" fill="#F8F8F8"></path><path d="M53.5223 70.9656C48.9534 75.6233 42.5949 78.5181 35.5549 78.5181C28.515 78.5181 22.1565 75.6233 17.5876 70.9656C7.91946 72.5345 1.48096 75.33 1.48096 78.5181C1.48096 83.4278 16.7357 87.407 35.5549 87.407C54.3742 87.407 69.6289 83.4278 69.6289 78.5181C69.6289 75.33 63.1904 72.5345 53.5223 70.9656Z" fill="#F8F8F8"></path><path d="M26.6667 35.5559H23.7037H17.7778V45.9263C17.7778 47.5633 19.1038 48.8892 20.7408 48.8892C22.3778 48.8892 23.7037 47.5633 23.7037 45.9263V41.4818C23.7037 40.664 24.3674 40.0003 25.1852 40.0003C26.003 40.0003 26.6667 40.664 26.6667 41.4818C26.6667 43.1189 27.9926 44.4448 29.6297 44.4448C31.2667 44.4448 32.5926 43.1189 32.5926 41.4818V35.5559H26.6667Z" fill="#BE8A60"></path><path d="M35.5553 79.9998C20.8516 79.9998 8.88867 68.0369 8.88867 53.3332V38.5184C8.88867 36.068 10.8827 34.074 13.3331 34.074H44.4441C45.2619 34.074 45.9256 34.7377 45.9256 35.5555C45.9256 36.3732 45.2619 37.0369 44.4441 37.0369H13.3331C12.5168 37.0369 11.8516 37.7021 11.8516 38.5184V53.3332C11.8516 66.4028 22.4857 77.0368 35.5553 77.0368C48.6249 77.0368 59.2589 66.4028 59.2589 53.3332V38.5184C59.2589 37.7021 58.5937 37.0369 57.7774 37.0369H53.3315C52.5138 37.0369 51.8501 36.3732 51.8501 35.5555C51.8501 34.7377 52.5138 34.074 53.3315 34.074H57.7774C60.2278 34.074 62.2219 36.068 62.2219 38.5184V53.3332C62.2219 68.0369 50.2589 79.9998 35.5553 79.9998Z" fill="#252627"></path><path d="M35.5556 31.111C34.7378 31.111 34.0741 30.4473 34.0741 29.6296C34.0741 26.3614 36.7319 23.7036 40 23.7036H44.4444C46.0785 23.7036 47.4074 22.3748 47.4074 20.7407C47.4074 19.1066 46.0785 17.7777 44.4444 17.7777H23.7037C20.4356 17.7777 17.7778 15.12 17.7778 11.8518C17.7778 8.58368 20.4356 5.92591 23.7037 5.92591H31.1111C32.7452 5.92591 34.0741 4.59703 34.0741 2.96296V1.48148C34.0741 0.663702 34.7378 0 35.5556 0C36.3733 0 37.037 0.663702 37.037 1.48148V2.96296C37.037 6.2311 34.3793 8.88887 31.1111 8.88887H23.7037C22.0697 8.88887 20.7408 10.2178 20.7408 11.8518C20.7408 13.4859 22.0697 14.8148 23.7037 14.8148H44.4444C47.7126 14.8148 50.3703 17.4726 50.3703 20.7407C50.3703 24.0088 47.7126 26.6666 44.4444 26.6666H40C38.3659 26.6666 37.037 27.9955 37.037 29.6296C37.037 30.4473 36.3733 31.111 35.5556 31.111Z" fill="#252627"></path><path d="M35.5555 88.8886C17.8874 88.8886 0 85.3271 0 78.5182C0 75.7434 2.83555 73.4071 8.42813 71.576C9.20443 71.3168 10.0429 71.7449 10.2963 72.5227C10.5511 73.3005 10.1274 74.136 9.3496 74.3908C4.63554 75.936 2.96296 77.5804 2.96296 78.5182C2.96296 81.539 15.6592 85.9256 35.5555 85.9256C55.4517 85.9256 68.148 81.539 68.148 78.5182C68.148 77.5804 66.4769 75.9375 61.7658 74.3938C60.988 74.139 60.5643 73.3019 60.8191 72.5242C61.0739 71.7479 61.9095 71.3227 62.6887 71.5775C68.2784 73.4086 71.1109 75.7449 71.1109 78.5182C71.1109 85.3271 53.2236 88.8886 35.5555 88.8886Z" fill="#252627"></path><path d="M69.6295 57.7773H66.6665C65.8488 57.7773 65.1851 57.1136 65.1851 56.2958C65.1851 55.4781 65.8488 54.8144 66.6665 54.8144H69.6295C73.7139 54.8144 77.0369 51.4914 77.0369 47.407C77.0369 43.3225 73.7139 39.9996 69.6295 39.9996H66.6665C65.8488 39.9996 65.1851 39.3359 65.1851 38.5181C65.1851 37.7003 65.8488 37.0366 66.6665 37.0366H69.6295C75.348 37.0366 79.9998 41.6885 79.9998 47.407C79.9998 53.1255 75.348 57.7773 69.6295 57.7773Z" fill="#252627"></path><path d="M69.6295 51.852H66.6665C65.8488 51.852 65.1851 51.1883 65.1851 50.3705C65.1851 49.5527 65.8488 48.889 66.6665 48.889H69.6295C70.4458 48.889 71.111 48.2239 71.111 47.4076C71.111 46.5913 70.4458 45.9261 69.6295 45.9261H66.6665C65.8488 45.9261 65.1851 45.2624 65.1851 44.4446C65.1851 43.6268 65.8488 42.9631 66.6665 42.9631H69.6295C72.0799 42.9631 74.0739 44.9572 74.0739 47.4076C74.0739 49.8579 72.0799 51.852 69.6295 51.852Z" fill="#252627"></path></svg>