<svg xmlns="http://www.w3.org/2000/svg" width="90" height="90" viewBox="0 0 90 90" fill="none"><path d="M25.7061 58.5951C25.7061 58.6842 25.712 58.7717 25.712 58.8607C34.7381 60.5 44.3903 57.8444 51.3675 50.8672C58.3433 43.8914 60.9841 34.2451 59.3462 25.2205C59.2587 25.2205 59.1726 25.2146 59.0866 25.2146C40.6516 25.2146 25.7061 40.1587 25.7061 58.5951Z" fill="#F8F8F8"></path><path d="M59.0867 89.0091C75.8836 89.0091 89.5001 75.3926 89.5001 58.5958C89.5001 41.7989 75.8836 28.1824 59.0867 28.1824C42.2899 28.1824 28.6733 41.7989 28.6733 58.5958C28.6733 75.3926 42.2899 89.0091 59.0867 89.0091Z" fill="#BE8A60"></path><path d="M76.1472 65.2714C76.9665 65.2714 77.6307 64.6071 77.6307 63.7878C77.6307 62.9684 76.9665 62.3042 76.1472 62.3042C75.3278 62.3042 74.6636 62.9684 74.6636 63.7878C74.6636 64.6071 75.3278 65.2714 76.1472 65.2714Z" fill="#252627"></path><path d="M43.509 23.7308C44.3283 23.7308 44.9925 23.0666 44.9925 22.2473C44.9925 21.4279 44.3283 20.7637 43.509 20.7637C42.6896 20.7637 42.0254 21.4279 42.0254 22.2473C42.0254 23.0666 42.6896 23.7308 43.509 23.7308Z" fill="#252627"></path><path d="M72.4397 47.4683C73.6688 47.4683 74.6651 46.472 74.6651 45.2429C74.6651 44.0139 73.6688 43.0176 72.4397 43.0176C71.2107 43.0176 70.2144 44.0139 70.2144 45.2429C70.2144 46.472 71.2107 47.4683 72.4397 47.4683Z" fill="#252627"></path><path d="M44.2508 47.4683C45.4798 47.4683 46.4761 46.472 46.4761 45.2429C46.4761 44.0139 45.4798 43.0176 44.2508 43.0176C43.0217 43.0176 42.0254 44.0139 42.0254 45.2429C42.0254 46.472 43.0217 47.4683 44.2508 47.4683Z" fill="#252627"></path><path d="M20.5139 48.9524C21.743 48.9524 22.7393 47.9561 22.7393 46.7271C22.7393 45.498 21.743 44.5017 20.5139 44.5017C19.2849 44.5017 18.2886 45.498 18.2886 46.7271C18.2886 47.9561 19.2849 48.9524 20.5139 48.9524Z" fill="#252627"></path><path d="M60.5713 78.6232C62.6196 78.6232 64.2802 76.9627 64.2802 74.9143C64.2802 72.8659 62.6196 71.2053 60.5713 71.2053C58.5229 71.2053 56.8623 72.8659 56.8623 74.9143C56.8623 76.9627 58.5229 78.6232 60.5713 78.6232Z" fill="#252627"></path><path d="M24.9648 16.3127C27.0132 16.3127 28.6738 14.6521 28.6738 12.6037C28.6738 10.5553 27.0132 8.89478 24.9648 8.89478C22.9164 8.89478 21.2559 10.5553 21.2559 12.6037C21.2559 14.6521 22.9164 16.3127 24.9648 16.3127Z" fill="#252627"></path><path d="M60.5713 60.8205C62.6196 60.8205 64.2802 59.1599 64.2802 57.1115C64.2802 55.0631 62.6196 53.4026 60.5713 53.4026C58.5229 53.4026 56.8623 55.0631 56.8623 57.1115C56.8623 59.1599 58.5229 60.8205 60.5713 60.8205Z" fill="#252627"></path><path d="M30.8979 31.1489C32.9463 31.1489 34.6069 29.4883 34.6069 27.4399C34.6069 25.3915 32.9463 23.731 30.8979 23.731C28.8495 23.731 27.189 25.3915 27.189 27.4399C27.189 29.4883 28.8495 31.1489 30.8979 31.1489Z" fill="#252627"></path><path d="M45.7351 68.2386C46.9642 68.2386 47.9605 67.2422 47.9605 66.0132C47.9605 64.7842 46.9642 63.7878 45.7351 63.7878C44.5061 63.7878 43.5098 64.7842 43.5098 66.0132C43.5098 67.2422 44.5061 68.2386 45.7351 68.2386Z" fill="#252627"></path><path d="M13.096 29.6653C14.325 29.6653 15.3213 28.669 15.3213 27.44C15.3213 26.2109 14.325 25.2146 13.096 25.2146C11.8669 25.2146 10.8706 26.2109 10.8706 27.44C10.8706 28.669 11.8669 29.6653 13.096 29.6653Z" fill="#252627"></path><path d="M30.9063 60.8118C23.116 60.8133 15.3273 57.8476 9.39592 51.9162C-2.4653 40.055 -2.4653 20.7566 9.39592 8.89543C12.2637 6.02619 15.6062 3.79784 19.3329 2.26976C20.0881 1.95524 20.9574 2.3187 21.2675 3.07978C21.579 3.83789 21.2171 4.70432 20.4575 5.01439C17.0972 6.39263 14.0811 8.40436 11.4937 10.9932C0.789671 21.6972 0.789671 39.1145 11.4937 49.8185C22.1977 60.5225 39.6149 60.5225 50.319 49.8185C56.6182 43.5207 59.4356 34.6459 57.9698 25.8824C54.0457 25.3825 50.9109 22.3174 50.3041 18.4274C46.4972 17.834 43.4782 14.8149 42.8848 11.0081C38.9948 10.4013 35.9297 7.26792 35.4297 3.34237C33.3112 2.99076 31.1556 2.88544 29.0177 3.03083C28.2136 3.08128 27.4941 2.46856 27.4377 1.64962C27.3828 0.83217 28.0015 0.125982 28.8189 0.0696063C31.608 -0.118808 34.4165 0.0755276 37.1596 0.649673C37.8465 0.79358 38.3391 1.39892 38.3391 2.10065C38.3391 2.14961 38.3346 2.21933 38.3272 2.28461C38.3672 5.52326 41.014 8.14621 44.2645 8.14621C45.0849 8.14621 45.7481 8.80937 45.7481 9.62979C45.7481 12.9026 48.4111 15.5656 51.6839 15.5656C52.5043 15.5656 53.1674 16.2288 53.1674 17.0492C53.1674 20.2997 55.7934 22.9494 59.0335 22.9864C59.1077 22.9775 59.1655 22.9746 59.213 22.9746C59.9133 22.9746 60.5215 23.4642 60.6639 24.154C62.7795 34.2617 59.6967 44.6408 52.4167 51.9162C46.4869 57.8461 38.6951 60.8118 30.9063 60.8118Z" fill="#252627"></path></svg>