<svg xmlns="http://www.w3.org/2000/svg" width="81" height="90" viewBox="0 0 81 90" fill="none"><path d="M62.25 42C62.25 40.3425 60.9075 39 59.25 39H54.75V40.5645C54.75 45.4545 53.6115 50.277 51.4245 54.651L48.945 59.61C46.4835 64.5315 44.976 69.858 44.4645 75.3135C44.3205 76.842 43.026 78.0015 41.49 78.0015H21.6375C21.705 78.999 21.7485 79.998 21.7485 81H51.7485V80.9985C51.7485 74.094 53.3565 67.284 56.4435 61.1085L58.923 56.1495C61.11 51.7755 62.2485 46.953 62.2485 42.063V42H62.25Z" fill="#F8F8F8"></path><path d="M33.7499 39H29.2499H20.2499V51C20.2499 53.4855 22.2644 55.5 24.7499 55.5C27.2354 55.5 29.2499 53.4855 29.2499 51V46.5C29.2499 45.258 30.2564 44.25 31.4999 44.25C32.7419 44.25 33.7499 45.258 33.7499 46.5C33.7499 48.9855 35.7644 51 38.2499 51C40.7354 51 42.7499 48.9855 42.7499 46.5V39H33.7499Z" fill="#BE8A60"></path><path d="M36.7395 31.5C35.9115 31.5 35.2395 30.8295 35.2395 30C35.2395 26.691 37.9305 24 41.2395 24H45.7395C47.394 24 48.7395 22.6545 48.7395 21C48.7395 19.3455 47.394 18 45.7395 18H24.7499C21.4409 18 18.7499 15.309 18.7499 12C18.7499 8.691 21.4409 6 24.7499 6H32.2499C33.9044 6 35.2499 4.653 35.2499 3V1.5C35.2499 0.6705 35.9219 0 36.7499 0C37.5779 0 38.2499 0.6705 38.2499 1.5V3C38.2499 6.309 35.5589 9 32.2499 9H24.7499C23.0954 9 21.7499 10.3455 21.7499 12C21.7499 13.6545 23.0954 15 24.7499 15H45.7395C49.0485 15 51.7395 17.691 51.7395 21C51.7395 24.309 49.0485 27 45.7395 27H41.2395C39.585 27 38.2395 28.3455 38.2395 30C38.2395 30.8295 37.5675 31.5 36.7395 31.5Z" fill="#252627"></path><path d="M65.2499 90H8.24994C4.11444 90 0.749939 86.6355 0.749939 82.5C0.749939 81.6705 1.42194 81 2.24994 81H56.2499C57.0779 81 57.7499 81.6705 57.7499 82.5C57.7499 83.3295 57.0779 84 56.2499 84H4.00642C4.62592 85.746 6.29394 87 8.24994 87H65.2499C67.2059 87 68.874 85.746 69.4935 84H65.2499C64.4219 84 63.7499 83.3295 63.7499 82.5C63.7499 81.6705 64.4219 81 65.2499 81H71.2499C72.0779 81 72.7499 81.6705 72.7499 82.5C72.7499 86.6355 69.3854 90 65.2499 90Z" fill="#252627"></path><path d="M51.7499 84H21.7499C20.9219 84 20.2499 83.3295 20.2499 82.5V80.9985C20.2499 74.361 18.6809 67.7176 15.7124 61.7791L13.2329 56.8201C10.9544 52.2616 9.74994 47.16 9.74994 42.063C9.74994 39.5175 11.7689 37.4985 14.2499 37.4985H45.7499C46.5779 37.4985 47.2499 38.169 47.2499 38.9985C47.2499 39.828 46.5779 40.4985 45.7499 40.4985H14.2499C13.4234 40.4985 12.7499 41.1705 12.7499 41.9985C12.7499 46.6965 13.8449 51.3345 15.9164 55.4775L18.3959 60.4365C21.5714 66.7875 23.2499 73.8975 23.2499 80.997V81L50.2499 80.9985C50.2499 73.899 51.9284 66.789 55.1039 60.438L57.5834 55.479C59.6549 51.3345 60.7499 46.698 60.7499 42.0645C60.7499 41.172 60.0764 40.5 59.2499 40.5H54.7499C53.9219 40.5 53.2499 39.8295 53.2499 39C53.2499 38.1705 53.9219 37.5 54.7499 37.5H59.2499C61.7309 37.5 63.7499 39.519 63.7499 42C63.7499 47.16 62.5454 52.2631 60.2669 56.8216L57.7874 61.7806C54.8189 67.7176 53.2499 74.3625 53.2499 81V82.5C53.2499 83.3295 52.5779 84 51.7499 84Z" fill="#252627"></path><path d="M69.7499 63H63.7499C62.9219 63 62.2499 62.3295 62.2499 61.5C62.2499 60.6705 62.9219 60 63.7499 60H69.7499C73.8854 60 77.2499 56.6355 77.2499 52.5C77.2499 48.3645 73.8854 45 69.7499 45H68.2499C67.4219 45 66.7499 44.3295 66.7499 43.5C66.7499 42.6705 67.4219 42 68.2499 42H69.7499C75.5399 42 80.2499 46.7115 80.2499 52.5C80.2499 58.2885 75.5399 63 69.7499 63Z" fill="#252627"></path><path d="M69.7499 57H65.2499C64.4219 57 63.7499 56.3295 63.7499 55.5C63.7499 54.6705 64.4219 54 65.2499 54H69.7499C70.5764 54 71.2499 53.328 71.2499 52.5C71.2499 51.672 70.5764 51 69.7499 51H66.7499C65.9219 51 65.2499 50.3295 65.2499 49.5C65.2499 48.6705 65.9219 48 66.7499 48H69.7499C72.2309 48 74.2499 50.019 74.2499 52.5C74.2499 54.981 72.2309 57 69.7499 57Z" fill="#252627"></path></svg>