<svg xmlns="http://www.w3.org/2000/svg" width="51" height="60" viewBox="0 0 51 60" fill="none"><path d="M35.1664 24.9377C34.6619 35.3229 30.4442 45.5626 22.5124 53.4934C22.3409 53.6659 22.1603 53.8244 21.9868 53.9939L24.0721 56.1694L47.1413 32.0972C43.5626 28.9618 39.5856 26.4954 35.1664 24.9377Z" fill="#F8F8F8"></path><path d="M24.0722 57.1725C23.7984 57.1725 23.5376 57.0611 23.348 56.8635L0.278812 32.7913C0.0892436 32.5937 -0.0110654 32.3269 0.000970696 32.0541C0.0130068 31.7803 0.136373 31.5235 0.34199 31.344C7.36807 25.1875 15.352 22.0671 24.0722 22.0671C32.7923 22.0671 40.7763 25.1875 47.8024 31.343C48.008 31.5235 48.1313 31.7803 48.1434 32.0531C48.1554 32.3269 48.0551 32.5927 47.8655 32.7903L44.8565 35.9297C44.4724 36.3299 43.8385 36.343 43.4383 35.9598C43.0391 35.5767 43.025 34.9418 43.4092 34.5416L45.684 32.1684C39.2296 26.7963 31.9649 24.0732 24.0722 24.0732C16.1795 24.0732 8.91471 26.7963 2.46135 32.1695L24.0722 54.7201L39.3962 38.7301C39.7803 38.3299 40.4152 38.3169 40.8144 38.7C41.2136 39.0832 41.2276 39.7181 40.8435 40.1183L24.7954 56.8645C24.6068 57.0611 24.345 57.1725 24.0722 57.1725Z" fill="#252627"></path><path d="M26.9101 59.9999C26.6443 59.9999 26.3885 59.8946 26.201 59.706L23.3644 56.8685C22.9723 56.4763 22.9723 55.8414 23.3644 55.4502C23.7566 55.0581 24.3905 55.0581 24.7827 55.4502L26.894 57.5626L48.5741 34.9347L46.4316 32.7912C46.0395 32.3991 46.0395 31.7642 46.4316 31.373C46.8238 30.9808 47.4577 30.9808 47.8499 31.373L50.6864 34.2105C51.0726 34.5967 51.0796 35.2195 50.7015 35.6137L27.6332 59.6899C27.4467 59.8845 27.1899 59.9959 26.9201 59.9989C26.9171 59.9999 26.9141 59.9999 26.9101 59.9999Z" fill="#252627"></path><path d="M10.0843 14.7452C7.19267 13.1063 6.17764 9.43329 7.81756 6.54162L9.79649 3.05115C11.4354 0.159474 15.1084 -0.855566 18.0001 0.784354C20.8918 2.42327 21.9068 6.09629 20.2669 8.98797L18.288 12.4784C16.6491 15.3701 12.976 16.3851 10.0843 14.7452Z" fill="#BE8A60"></path><path d="M11.57 13.1303C11.2029 13.1303 10.8499 12.9287 10.6733 12.5786C10.4236 12.0841 10.6222 11.4813 11.1167 11.2316L11.8117 10.8805C12.8549 10.355 13.3855 9.15637 13.0745 8.032C12.5098 5.98787 13.4727 3.81234 15.3674 2.85748L16.0615 2.50642C16.556 2.25466 17.1598 2.45426 17.4095 2.94975C17.6593 3.44423 17.4607 4.04705 16.9672 4.29679L16.2721 4.64784C15.228 5.17342 14.6974 6.37202 15.0083 7.4964C15.573 9.54053 14.6091 11.716 12.7155 12.6719L12.0204 13.023C11.8759 13.0962 11.7215 13.1303 11.57 13.1303Z" fill="#32394A"></path><path d="M36.7692 20.6078C33.6348 21.7121 30.1975 20.0671 29.0932 16.9317L27.7602 13.1474C26.6558 10.013 28.3008 6.57565 31.4362 5.47134C34.5706 4.36703 38.0079 6.01197 39.1122 9.14738L40.4452 12.9317C41.5495 16.0671 39.9036 19.5034 36.7692 20.6078Z" fill="#BE8A60"></path><path d="M35.7703 18.7732C35.6881 18.7732 35.6048 18.7632 35.5225 18.7421C34.9859 18.6057 34.661 18.0601 34.7974 17.5235L34.989 16.7682C35.2758 15.6368 34.7201 14.4503 33.669 13.9458C31.7573 13.03 30.7482 10.8736 31.2708 8.81939L31.4624 8.06412C31.5978 7.5255 32.1495 7.20152 32.681 7.33893C33.2177 7.47534 33.5426 8.02099 33.4062 8.5576L33.2146 9.31286C32.9278 10.4443 33.4834 11.6308 34.5346 12.1353C36.4463 13.0511 37.4554 15.2075 36.9328 17.2617L36.7412 18.017C36.6269 18.4713 36.2176 18.7732 35.7703 18.7732Z" fill="#32394A"></path><path d="M9.02693 21.0641C9.58088 21.0641 10.0299 20.6151 10.0299 20.0611C10.0299 19.5072 9.58088 19.0581 9.02693 19.0581C8.47299 19.0581 8.02393 19.5072 8.02393 20.0611C8.02393 20.6151 8.47299 21.0641 9.02693 21.0641Z" fill="#BE8A60"></path><path d="M23.069 19.0582C24.1769 19.0582 25.075 18.1601 25.075 17.0522C25.075 15.9443 24.1769 15.0461 23.069 15.0461C21.9611 15.0461 21.063 15.9443 21.063 17.0522C21.063 18.1601 21.9611 19.0582 23.069 19.0582Z" fill="#BE8A60"></path><path d="M43.1295 23.0702C43.6834 23.0702 44.1325 22.6212 44.1325 22.0672C44.1325 21.5133 43.6834 21.0642 43.1295 21.0642C42.5755 21.0642 42.1265 21.5133 42.1265 22.0672C42.1265 22.6212 42.5755 23.0702 43.1295 23.0702Z" fill="#BE8A60"></path><path d="M2.00602 16.0491C3.11391 16.0491 4.01204 15.151 4.01204 14.0431C4.01204 12.9352 3.11391 12.0371 2.00602 12.0371C0.898125 12.0371 0 12.9352 0 14.0431C0 15.151 0.898125 16.0491 2.00602 16.0491Z" fill="#BE8A60"></path><path d="M46.1383 16.0491C47.2462 16.0491 48.1444 15.151 48.1444 14.0431C48.1444 12.9352 47.2462 12.0371 46.1383 12.0371C45.0304 12.0371 44.1323 12.9352 44.1323 14.0431C44.1323 15.151 45.0304 16.0491 46.1383 16.0491Z" fill="#BE8A60"></path></svg>