<svg width="1435" height="635" viewBox="0 0 1435 635" fill="none" xmlns="http://www.w3.org/2000/svg">
<path d="M493.336 437C491.18 432.688 489.428 425.006 488.08 413.955C470.695 432.014 449.941 441.043 425.818 441.043C404.256 441.043 386.534 434.979 372.653 422.85C358.907 410.586 352.034 395.088 352.034 376.355C352.034 353.58 360.659 335.926 377.909 323.393C395.294 310.725 419.687 304.391 451.087 304.391H487.474V287.208C487.474 274.136 483.565 263.759 475.749 256.077C467.933 248.261 456.41 244.353 441.182 244.353C427.84 244.353 416.654 247.722 407.625 254.46C398.596 261.198 394.081 269.352 394.081 278.92H356.481C356.481 268.004 360.322 257.492 368.004 247.385C375.82 237.143 386.332 229.057 399.539 223.127C412.881 217.197 427.503 214.232 443.405 214.232C468.606 214.232 488.35 220.566 502.635 233.234C516.92 245.768 524.332 263.085 524.871 285.187V385.856C524.871 405.937 527.432 421.906 532.553 433.766V437H493.336ZM431.276 408.497C443.001 408.497 454.119 405.465 464.631 399.4C475.143 393.336 482.757 385.452 487.474 375.749V330.872H458.162C412.342 330.872 389.432 344.281 389.432 371.1C389.432 382.824 393.34 391.988 401.156 398.592C408.973 405.195 419.013 408.497 431.276 408.497ZM601.89 437V247.183H567.322V218.275H601.89V195.837C601.89 172.388 608.156 154.262 620.689 141.459C633.223 128.656 650.944 122.255 673.854 122.255C682.479 122.255 691.037 123.4 699.527 125.691L697.506 156.014C691.172 154.801 684.434 154.194 677.291 154.194C665.162 154.194 655.796 157.766 649.192 164.908C642.589 171.916 639.287 182.023 639.287 195.23V218.275H685.983V247.183H639.287V437H601.89ZM813.337 441.043C783.688 441.043 759.565 431.34 740.968 411.934C722.37 392.393 713.071 366.315 713.071 333.702V326.829C713.071 305.132 717.182 285.793 725.402 268.812C733.758 251.697 745.348 238.355 760.172 228.787C775.131 219.084 791.303 214.232 808.688 214.232C837.123 214.232 859.225 223.599 874.992 242.331C890.76 261.063 898.644 287.882 898.644 322.786V338.352H750.469C751.008 359.914 757.274 377.366 769.269 390.708C781.397 403.915 796.761 410.519 815.358 410.519C828.565 410.519 839.751 407.823 848.915 402.433C858.079 397.042 866.098 389.899 872.971 381.005L895.813 398.794C877.485 426.96 849.993 441.043 813.337 441.043ZM808.688 244.959C793.594 244.959 780.926 250.484 770.684 261.535C760.441 272.451 754.107 287.814 751.682 307.625H861.246V304.795C860.168 285.793 855.047 271.104 845.883 260.727C836.719 250.215 824.32 244.959 808.688 244.959Z" fill="#C59872"/>
<path d="M1043.99 255.471L1114.54 142.672H1160.22L1067.24 288.623L1162.45 437H1116.36L1043.99 322.18L971.215 437H925.327L1020.74 288.623L927.551 142.672H973.034L1043.99 255.471ZM1246.34 321.775V437H1207.53V142.672H1316.08C1348.29 142.672 1373.49 150.893 1391.68 167.334C1410.01 183.775 1419.18 205.54 1419.18 232.628C1419.18 261.198 1410.21 283.232 1392.29 298.73C1374.5 314.094 1348.96 321.775 1315.68 321.775H1246.34ZM1246.34 290.038H1316.08C1336.83 290.038 1352.74 285.187 1363.79 275.483C1374.84 265.646 1380.36 251.495 1380.36 233.032C1380.36 215.513 1374.84 201.497 1363.79 190.985C1352.74 180.474 1337.58 175.016 1318.3 174.611H1246.34V290.038Z" fill="white"/>
<g clip-path="url(#clip0)">
<path d="M164.018 178.322C110.853 178.096 67.6431 221.201 67.4169 274.517C67.1907 327.832 110.175 371.165 163.339 371.392C216.504 371.619 259.714 328.513 259.94 275.197C260.166 221.655 217.182 178.322 164.018 178.322ZM212.658 323.975C214.92 317.169 216.277 309.682 216.277 301.968C216.277 263.627 185.51 232.545 147.277 232.318C128.047 232.318 110.853 240.032 98.1844 252.51C107.46 225.058 133.477 205.093 164.018 205.32C202.251 205.32 233.245 236.629 233.019 274.97C233.019 294.028 225.1 311.497 212.658 323.975Z" fill="white"/>
<path d="M183.474 111.849C180.533 111.395 177.592 111.168 174.425 110.941C164.018 124.327 158.362 138.166 155.195 150.644C158.136 150.417 161.077 150.417 164.018 150.417C170.126 150.417 176.008 150.871 181.89 151.778C185.057 165.164 190.487 174.239 190.487 174.239C190.487 174.239 184.152 137.032 211.3 105.95C245.914 66.2471 201.12 29.4937 201.12 29.4937C201.12 29.4937 221.481 58.3066 191.618 97.1019C187.998 101.866 185.284 106.857 183.474 111.849Z" fill="#C59872"/>
<path d="M217.409 120.924C207.455 132.494 202.025 144.745 199.084 155.635C243.878 169.021 274.957 200.5 274.957 234.098H315C306 180 275.55 140.208 218.087 120.016C217.861 120.243 217.861 120.47 217.409 120.924Z" fill="#C59872"/>
<path d="M163.34 399.297C94.7914 399.07 39.3646 343.259 39.5908 274.517C39.8171 214.622 81.8962 164.937 138.002 153.14C141.848 165.844 146.598 174.239 146.598 174.239C146.598 174.239 139.133 129.545 171.484 92.1106C213.337 44.0134 159.494 0 159.494 0C159.494 0 183.927 34.7116 147.956 81.2207C140.038 91.43 135.966 102.547 134.382 113.21C58.1418 127.049 0.226511 193.75 0.00027975 274.29C-0.225952 365.039 72.8469 438.773 163.34 439C246.593 439.227 305.594 397.064 316 316.297H275.957C265.777 374.83 224.648 399.297 163.34 399.297Z" fill="#C59872"/>
<rect x="249" y="264" width="52" height="23" rx="11.5" fill="white"/>
</g>
<path d="M259.547 588.441C258.668 595.961 255.885 601.771 251.197 605.873C246.542 609.942 240.341 611.977 232.594 611.977C224.195 611.977 217.457 608.965 212.379 602.943C207.333 596.921 204.811 588.865 204.811 578.773V571.938C204.811 565.329 205.982 559.519 208.326 554.506C210.702 549.493 214.055 545.652 218.385 542.982C222.714 540.281 227.727 538.93 233.424 538.93C240.976 538.93 247.031 541.046 251.588 545.277C256.145 549.477 258.798 555.303 259.547 562.758H250.123C249.309 557.094 247.535 552.992 244.801 550.453C242.099 547.914 238.307 546.645 233.424 546.645C227.434 546.645 222.73 548.858 219.312 553.285C215.927 557.712 214.234 564.011 214.234 572.182V579.066C214.234 586.781 215.846 592.917 219.068 597.475C222.291 602.032 226.799 604.311 232.594 604.311C237.802 604.311 241.79 603.139 244.557 600.795C247.356 598.419 249.212 594.301 250.123 588.441H259.547ZM303.58 584.096C303.58 578.92 304.589 574.265 306.607 570.131C308.658 565.997 311.49 562.807 315.104 560.561C318.749 558.314 322.9 557.191 327.555 557.191C334.749 557.191 340.559 559.682 344.986 564.662C349.446 569.643 351.676 576.267 351.676 584.535V585.17C351.676 590.313 350.683 594.936 348.697 599.037C346.744 603.106 343.928 606.28 340.25 608.559C336.604 610.837 332.405 611.977 327.652 611.977C320.491 611.977 314.68 609.486 310.221 604.506C305.794 599.525 303.58 592.934 303.58 584.73V584.096ZM312.662 585.17C312.662 591.029 314.013 595.733 316.715 599.281C319.449 602.829 323.095 604.604 327.652 604.604C332.242 604.604 335.888 602.813 338.59 599.232C341.292 595.619 342.643 590.574 342.643 584.096C342.643 578.301 341.259 573.614 338.492 570.033C335.758 566.42 332.112 564.613 327.555 564.613C323.095 564.613 319.498 566.387 316.764 569.936C314.029 573.484 312.662 578.562 312.662 585.17ZM402.447 611V565.15H394.098V558.168H402.447V552.748C402.447 547.084 403.961 542.706 406.988 539.613C410.016 536.521 414.296 534.975 419.83 534.975C421.913 534.975 423.98 535.251 426.031 535.805L425.543 543.129C424.013 542.836 422.385 542.689 420.66 542.689C417.73 542.689 415.468 543.552 413.873 545.277C412.278 546.97 411.48 549.411 411.48 552.602V558.168H422.76V565.15H411.48V611H402.447ZM472.213 611V565.15H463.863V558.168H472.213V552.748C472.213 547.084 473.727 542.706 476.754 539.613C479.781 536.521 484.062 534.975 489.596 534.975C491.679 534.975 493.746 535.251 495.797 535.805L495.309 543.129C493.779 542.836 492.151 542.689 490.426 542.689C487.496 542.689 485.234 543.552 483.639 545.277C482.044 546.97 481.246 549.411 481.246 552.602V558.168H492.525V565.15H481.246V611H472.213ZM558.287 611.977C551.126 611.977 545.299 609.633 540.807 604.945C536.314 600.225 534.068 593.926 534.068 586.049V584.389C534.068 579.148 535.061 574.477 537.047 570.375C539.065 566.241 541.865 563.018 545.445 560.707C549.059 558.363 552.965 557.191 557.164 557.191C564.033 557.191 569.371 559.454 573.18 563.979C576.988 568.503 578.893 574.981 578.893 583.412V587.172H543.102C543.232 592.38 544.745 596.596 547.643 599.818C550.572 603.008 554.283 604.604 558.775 604.604C561.965 604.604 564.667 603.952 566.881 602.65C569.094 601.348 571.031 599.623 572.691 597.475L578.209 601.771C573.782 608.575 567.141 611.977 558.287 611.977ZM557.164 564.613C553.518 564.613 550.458 565.948 547.984 568.617C545.51 571.254 543.98 574.965 543.395 579.75H569.859V579.066C569.599 574.477 568.362 570.928 566.148 568.422C563.935 565.883 560.94 564.613 557.164 564.613ZM646.314 611.977C639.153 611.977 633.326 609.633 628.834 604.945C624.342 600.225 622.096 593.926 622.096 586.049V584.389C622.096 579.148 623.089 574.477 625.074 570.375C627.092 566.241 629.892 563.018 633.473 560.707C637.086 558.363 640.992 557.191 645.191 557.191C652.06 557.191 657.398 559.454 661.207 563.979C665.016 568.503 666.92 574.981 666.92 583.412V587.172H631.129C631.259 592.38 632.773 596.596 635.67 599.818C638.6 603.008 642.311 604.604 646.803 604.604C649.993 604.604 652.695 603.952 654.908 602.65C657.122 601.348 659.059 599.623 660.719 597.475L666.236 601.771C661.809 608.575 655.169 611.977 646.314 611.977ZM645.191 564.613C641.546 564.613 638.486 565.948 636.012 568.617C633.538 571.254 632.008 574.965 631.422 579.75H657.887V579.066C657.626 574.477 656.389 570.928 654.176 568.422C651.962 565.883 648.967 564.613 645.191 564.613ZM828.277 611H818.854V578.139H783.014V611H773.639V539.906H783.014V570.473H818.854V539.906H828.277V611ZM876.119 584.096C876.119 578.92 877.128 574.265 879.146 570.131C881.197 565.997 884.029 562.807 887.643 560.561C891.288 558.314 895.439 557.191 900.094 557.191C907.288 557.191 913.098 559.682 917.525 564.662C921.985 569.643 924.215 576.267 924.215 584.535V585.17C924.215 590.313 923.222 594.936 921.236 599.037C919.283 603.106 916.467 606.28 912.789 608.559C909.143 610.837 904.944 611.977 900.191 611.977C893.03 611.977 887.219 609.486 882.76 604.506C878.333 599.525 876.119 592.934 876.119 584.73V584.096ZM885.201 585.17C885.201 591.029 886.552 595.733 889.254 599.281C891.988 602.829 895.634 604.604 900.191 604.604C904.781 604.604 908.427 602.813 911.129 599.232C913.831 595.619 915.182 590.574 915.182 584.096C915.182 578.301 913.798 573.614 911.031 570.033C908.297 566.42 904.651 564.613 900.094 564.613C895.634 564.613 892.037 566.387 889.303 569.936C886.568 573.484 885.201 578.562 885.201 585.17ZM1003.16 605.775C999.645 609.91 994.485 611.977 987.682 611.977C982.05 611.977 977.753 610.349 974.791 607.094C971.861 603.806 970.38 598.956 970.348 592.543V558.168H979.381V592.299C979.381 600.307 982.636 604.311 989.146 604.311C996.048 604.311 1000.64 601.739 1002.92 596.596V558.168H1011.95V611H1003.36L1003.16 605.775ZM1091.48 596.986C1091.48 594.545 1090.55 592.657 1088.7 591.322C1086.87 589.955 1083.67 588.783 1079.08 587.807C1074.52 586.83 1070.89 585.658 1068.19 584.291C1065.52 582.924 1063.53 581.296 1062.23 579.408C1060.96 577.52 1060.33 575.274 1060.33 572.67C1060.33 568.34 1062.15 564.678 1065.8 561.684C1069.48 558.689 1074.16 557.191 1079.86 557.191C1085.85 557.191 1090.7 558.738 1094.41 561.83C1098.15 564.923 1100.03 568.878 1100.03 573.695H1090.94C1090.94 571.221 1089.89 569.089 1087.77 567.299C1085.69 565.508 1083.05 564.613 1079.86 564.613C1076.57 564.613 1074 565.329 1072.14 566.762C1070.29 568.194 1069.36 570.066 1069.36 572.377C1069.36 574.558 1070.22 576.202 1071.95 577.309C1073.67 578.415 1076.78 579.473 1081.28 580.482C1085.8 581.492 1089.46 582.696 1092.26 584.096C1095.06 585.495 1097.13 587.188 1098.46 589.174C1099.83 591.127 1100.51 593.52 1100.51 596.352C1100.51 601.072 1098.63 604.864 1094.85 607.729C1091.07 610.561 1086.17 611.977 1080.15 611.977C1075.92 611.977 1072.18 611.228 1068.92 609.73C1065.67 608.233 1063.11 606.15 1061.26 603.48C1059.43 600.779 1058.52 597.865 1058.52 594.74H1067.55C1067.72 597.768 1068.92 600.176 1071.17 601.967C1073.45 603.725 1076.44 604.604 1080.15 604.604C1083.57 604.604 1086.3 603.92 1088.36 602.553C1090.44 601.153 1091.48 599.298 1091.48 596.986ZM1169.21 611.977C1162.04 611.977 1156.22 609.633 1151.72 604.945C1147.23 600.225 1144.99 593.926 1144.99 586.049V584.389C1144.99 579.148 1145.98 574.477 1147.96 570.375C1149.98 566.241 1152.78 563.018 1156.36 560.707C1159.98 558.363 1163.88 557.191 1168.08 557.191C1174.95 557.191 1180.29 559.454 1184.1 563.979C1187.91 568.503 1189.81 574.981 1189.81 583.412V587.172H1154.02C1154.15 592.38 1155.66 596.596 1158.56 599.818C1161.49 603.008 1165.2 604.604 1169.69 604.604C1172.88 604.604 1175.59 603.952 1177.8 602.65C1180.01 601.348 1181.95 599.623 1183.61 597.475L1189.13 601.771C1184.7 608.575 1178.06 611.977 1169.21 611.977ZM1168.08 564.613C1164.44 564.613 1161.38 565.948 1158.9 568.617C1156.43 571.254 1154.9 574.965 1154.31 579.75H1180.78V579.066C1180.52 574.477 1179.28 570.928 1177.07 568.422C1174.85 565.883 1171.86 564.613 1168.08 564.613Z" fill="white"/>
<defs>
<clipPath id="clip0">
<rect width="326" height="439" fill="white"/>
</clipPath>
</defs>
</svg>
