<svg xmlns="http://www.w3.org/2000/svg" width="38" height="50" viewBox="0 0 38 50" fill="none"><path d="M30.8813 41.5879C30.9726 41.8017 31.0347 42.0189 31.0347 42.2413C31.0347 44.6215 25.6313 46.5517 18.9658 46.5517C12.3002 46.5517 6.89679 44.6215 6.89679 42.2413C6.89679 42.0189 6.95887 41.8017 7.05024 41.5879C3.26404 42.3784 0.862305 43.5344 0.862305 44.8275C0.862305 47.2077 8.96748 49.1379 18.9658 49.1379C28.964 49.1379 37.0692 47.2077 37.0692 44.8275C37.0692 43.5344 34.6675 42.3784 30.8813 41.5879Z" fill="#F8F8F8"></path><path d="M18.9655 50.0003C9.83104 50.0003 0 48.3813 0 44.8279C0 42.2227 5.08793 40.9296 9.35603 40.3029C9.83621 40.227 10.2647 40.5598 10.3345 41.0305C10.4035 41.502 10.0776 41.9399 9.60691 42.0089C3.65087 42.8822 1.72414 44.2848 1.72414 44.8279C1.72414 45.9977 7.81035 48.2761 18.9655 48.2761C30.1207 48.2761 36.2069 45.9977 36.2069 44.8279C36.2069 44.2848 34.2802 42.8822 28.3233 42.008C27.8526 41.9391 27.5267 41.5011 27.5957 41.0296C27.6646 40.5589 28.0905 40.2253 28.5741 40.302C32.8431 40.9296 37.931 42.2227 37.931 44.8279C37.931 48.3813 28.1 50.0003 18.9655 50.0003Z" fill="#252627"></path><path d="M24.9835 2.01758C27.1473 4.79344 28.4482 8.27533 28.4482 12.0684C28.4482 21.4607 16.9499 34.2771 13.2231 38.1848C16.3568 41.9745 18.9654 44.54 18.9654 44.54C18.9654 44.54 35.3447 28.4477 35.3447 17.2409C35.3447 10.3219 31.0481 4.41758 24.9835 2.01758Z" fill="#F8F8F8"></path><path d="M18.9655 45.4026C18.7474 45.4026 18.5293 45.3198 18.3612 45.1552C17.6819 44.4879 1.72412 28.6784 1.72412 17.2414C1.72412 7.73448 9.4586 0 18.9655 0C28.4724 0 36.2069 7.73448 36.2069 17.2414C36.2069 28.6784 20.2491 44.4879 19.5698 45.1552C19.4017 45.3198 19.1836 45.4026 18.9655 45.4026ZM18.9655 1.72414C10.4095 1.72414 3.44826 8.68534 3.44826 17.2414C3.44826 26.7621 16.0336 40.2905 18.9655 43.3121C21.8974 40.2897 34.4827 26.7569 34.4827 17.2414C34.4827 8.68534 27.5215 1.72414 18.9655 1.72414Z" fill="#252627"></path><path d="M18.9657 28.448C25.1551 28.448 30.1726 23.4305 30.1726 17.2411C30.1726 11.0517 25.1551 6.03418 18.9657 6.03418C12.7763 6.03418 7.75879 11.0517 7.75879 17.2411C7.75879 23.4305 12.7763 28.448 18.9657 28.448Z" fill="white"></path><path d="M18.9655 29.3103C12.3103 29.3103 6.89648 23.8965 6.89648 17.2413C6.89648 10.5862 12.3103 5.17236 18.9655 5.17236C25.6206 5.17236 31.0344 10.5862 31.0344 17.2413C31.0344 23.8965 25.6206 29.3103 18.9655 29.3103ZM18.9655 6.8965C13.2611 6.8965 8.62062 11.537 8.62062 17.2413C8.62062 22.9456 13.2611 27.5862 18.9655 27.5862C24.6698 27.5862 29.3103 22.9456 29.3103 17.2413C29.3103 11.537 24.6698 6.8965 18.9655 6.8965Z" fill="#252627"></path><path d="M13.3593 22.8423C11.0395 20.5199 11.0412 16.757 13.3636 14.4371L16.1662 11.6371C18.4886 9.31729 22.2515 9.31902 24.5713 11.6414C26.8912 13.9639 26.8894 17.7268 24.567 20.0466L21.7636 22.8466C19.442 25.1665 15.6791 25.1647 13.3593 22.8423Z" fill="#BE8A60"></path><path d="M15.4613 21.603C15.0579 21.603 14.6976 21.3193 14.6174 20.909C14.5243 20.4418 14.8277 19.9883 15.2941 19.8952L16.0484 19.7452C17.2389 19.5073 18.1036 18.4538 18.1045 17.24C18.1045 15.2073 19.5527 13.4435 21.5467 13.0461L22.3002 12.8952C22.7717 12.7987 23.2217 13.1056 23.3148 13.5711C23.4079 14.0383 23.1053 14.4918 22.6389 14.5857L21.8846 14.7366C20.6932 14.9737 19.8286 16.0271 19.8286 17.2409C19.8277 19.2737 18.3794 21.0374 16.3863 21.4357L15.6312 21.5857C15.5734 21.5987 15.5174 21.603 15.4613 21.603Z" fill="#32394A"></path></svg>