<svg xmlns="http://www.w3.org/2000/svg" width="50" height="50" viewBox="0 0 50 50" fill="none"><path d="M2.14102 38.3335L1.83936 40.8335H4.53436C5.03436 40.8335 5.42189 41.2702 5.36189 41.7668L4.46854 49.1668H6.66687L7.97435 38.3335H2.14102Z" fill="#F8F8F8"></path><path d="M32.974 38.3335L32.6724 40.8335H35.3674C35.8674 40.8335 36.2549 41.2702 36.1949 41.7668L35.3016 49.1668H37.4999L38.8074 38.3335H32.974Z" fill="#F8F8F8"></path><path d="M39.6984 0.833496L35.6509 34.3668C35.5501 35.2043 34.8392 35.8334 33.9959 35.8334H2.4418L2.14014 38.3334H38.8067L43.3334 0.833496H39.6984Z" fill="#F8F8F8"></path><path d="M43.3332 0.833496L39.1665 38.3334H47.859L43.3332 0.833496Z" fill="#F8F8F8"></path><path d="M17.08 19.5808C14.4925 16.9908 14.4942 12.7933 17.085 10.2058L20.2117 7.08243C22.8017 4.49494 26.9992 4.49661 29.5867 7.08744C32.1742 9.67744 32.1725 13.8749 29.5816 16.4633L26.455 19.5866C23.8658 22.1733 19.6683 22.1708 17.08 19.5808Z" fill="#BE8A60"></path><path d="M19.4249 18.0708C19.0349 18.0708 18.6874 17.7966 18.609 17.4C18.519 16.9483 18.8116 16.51 19.2632 16.42L20.1057 16.2525C21.4924 15.9758 22.4999 14.7475 22.5015 13.3325C22.5024 11.1266 24.074 9.21164 26.2374 8.77914L27.0798 8.61165C27.5348 8.51582 27.9699 8.81496 28.0599 9.26579C28.1499 9.71746 27.8574 10.1558 27.4057 10.2458L26.5632 10.4133C25.1765 10.6908 24.169 11.9191 24.1682 13.3333C24.1665 15.54 22.5949 17.4549 20.4315 17.8866L19.5891 18.0541C19.5332 18.0666 19.4782 18.0708 19.4249 18.0708Z" fill="#32394A"></path><path d="M38.8071 39.1666H2.14054C1.9022 39.1666 1.67471 39.0649 1.51721 38.8858C1.35888 38.7074 1.28472 38.4699 1.31305 38.2333L5.8389 0.733336C5.88974 0.315004 6.24472 0 6.66639 0H34.9997C35.4605 0 35.833 0.372499 35.833 0.833332C35.833 1.29416 35.4605 1.66666 34.9997 1.66666H7.40557L3.08139 37.4999H38.0688L42.3938 1.66666H39.9997C39.5388 1.66666 39.1663 1.29416 39.1663 0.833332C39.1663 0.372499 39.5388 0 39.9997 0H43.333C43.5713 0 43.7988 0.101671 43.9563 0.280838C44.1147 0.459171 44.1888 0.696662 44.1605 0.933328L39.6347 38.4333C39.5847 38.8516 39.2288 39.1666 38.8071 39.1666Z" fill="#252627"></path><path d="M6.66677 50H0.833449C0.595116 50 0.367628 49.8983 0.210128 49.7191C0.0509618 49.5408 -0.0223674 49.3033 0.00596589 49.0667L0.509302 44.9C0.564302 44.4425 0.975948 44.1166 1.43678 44.1725C1.89345 44.2275 2.21927 44.6425 2.16427 45.1L1.77344 48.3333H5.92759L7.03426 39.1667H2.88011L2.66679 40.9333C2.61179 41.3908 2.19676 41.7167 1.73926 41.6608C1.28259 41.6058 0.956773 41.1908 1.01177 40.7333L1.31344 38.2333C1.36344 37.815 1.71926 37.5 2.14092 37.5H7.97425C8.21258 37.5 8.44012 37.6017 8.59762 37.7808C8.75595 37.9592 8.83011 38.1967 8.80178 38.4333L7.49426 49.2666C7.44426 49.685 7.08844 50 6.66677 50Z" fill="#252627"></path><path d="M37.5003 50H31.6669C31.4286 50 31.2011 49.8983 31.0436 49.7191C30.8845 49.5408 30.8111 49.3033 30.8395 49.0667L32.1469 38.2333C32.1969 37.815 32.5528 37.5 32.9744 37.5H38.8077C39.0461 37.5 39.2736 37.6017 39.4311 37.7808C39.5894 37.9592 39.6636 38.1967 39.6353 38.4333L38.3278 49.2666C38.2778 49.685 37.9219 50 37.5003 50ZM32.6069 48.3333H36.7611L37.8678 39.1667H33.7136L32.6069 48.3333Z" fill="#252627"></path><path d="M47.8593 39.1667H39.1668C38.706 39.1667 38.3335 38.7942 38.3335 38.3334C38.3335 37.8725 38.706 37.5 39.1668 37.5H46.9193L42.506 0.933413C42.4518 0.475914 42.7768 0.0609092 43.2335 0.00590929C43.6977 -0.0482573 44.106 0.275922 44.161 0.733422L48.6868 38.2334C48.7152 38.47 48.641 38.7075 48.4827 38.8859C48.3243 39.065 48.0977 39.1667 47.8593 39.1667Z" fill="#252627"></path><path d="M43.3334 49.1668H49.1667L47.8592 38.3335H42.0259L43.3334 49.1668Z" fill="#F8F8F8"></path><path d="M12.4999 49.1668H18.3332L17.0257 38.3335H11.1924L12.4999 49.1668Z" fill="#F8F8F8"></path><path d="M49.1666 50H43.3333C42.9116 50 42.5558 49.685 42.5058 49.2666L41.1983 38.4333C41.17 38.1967 41.2441 37.9592 41.4025 37.7808C41.5608 37.6017 41.7875 37.5 42.0258 37.5H47.8592C48.2808 37.5 48.6366 37.815 48.6866 38.2333L49.9941 49.0667C50.0225 49.3033 49.9483 49.5408 49.79 49.7191C49.6325 49.8983 49.405 50 49.1666 50ZM44.0725 48.3333H48.2266L47.12 39.1667H42.9658L44.0725 48.3333Z" fill="#252627"></path><path d="M18.3336 50H12.5003C12.0786 50 11.7228 49.685 11.6728 49.2666L10.3653 38.4333C10.337 38.1967 10.4111 37.9592 10.5695 37.7808C10.7278 37.6017 10.9545 37.5 11.1928 37.5H17.0262C17.4478 37.5 17.8036 37.815 17.8536 38.2333L19.1611 49.0667C19.1894 49.3033 19.1153 49.5408 18.957 49.7191C18.7995 49.8983 18.572 50 18.3336 50ZM13.2395 48.3333H17.3936L16.287 39.1667H12.1328L13.2395 48.3333Z" fill="#252627"></path><path d="M33.3333 27.5002H10.8333C10.3725 27.5002 10 27.1277 10 26.6668C10 26.206 10.3725 25.8335 10.8333 25.8335H33.3333C33.7941 25.8335 34.1666 26.206 34.1666 26.6668C34.1666 27.1277 33.7941 27.5002 33.3333 27.5002Z" fill="#252627"></path><path d="M32.4998 32.5002H9.99984C9.539 32.5002 9.1665 32.1277 9.1665 31.6668C9.1665 31.206 9.539 30.8335 9.99984 30.8335H32.4998C32.9606 30.8335 33.3331 31.206 33.3331 31.6668C33.3331 32.1277 32.9606 32.5002 32.4998 32.5002Z" fill="#252627"></path></svg>